# This file uses centimeters as units for non-parametric coordinates.

mtllib torus_tri.mtl
g default
v 0.000000 0.000000 -0.500000
v -0.500000 0.000000 -0.000000
v -0.000000 0.000000 0.500000
v 0.500000 0.000000 0.000000
v 0.000000 0.500000 -1.000000
v -1.000000 0.500000 -0.000000
v -0.000000 0.500000 1.000000
v 1.000000 0.500000 0.000000
v 0.000000 -0.000000 -1.500000
v -1.500000 -0.000000 -0.000000
v -0.000000 -0.000000 1.500000
v 1.500000 -0.000000 0.000000
v 0.000000 -0.500000 -1.000000
v -1.000000 -0.500000 -0.000000
v -0.000000 -0.500000 1.000000
v 1.000000 -0.500000 0.000000
vt 0.000000 1.000000
vt 0.250000 1.000000
vt 0.500000 1.000000
vt 0.750000 1.000000
vt 1.000000 1.000000
vt 0.000000 0.750000
vt 0.250000 0.750000
vt 0.500000 0.750000
vt 0.750000 0.750000
vt 1.000000 0.750000
vt 0.000000 0.500000
vt 0.250000 0.500000
vt 0.500000 0.500000
vt 0.750000 0.500000
vt 1.000000 0.500000
vt 0.000000 0.250000
vt 0.250000 0.250000
vt 0.500000 0.250000
vt 0.750000 0.250000
vt 1.000000 0.250000
vt 0.000000 0.000000
vt 0.250000 0.000000
vt 0.500000 0.000000
vt 0.750000 0.000000
vt 1.000000 0.000000
vn 0.577350 0.577350 0.577350
vn 0.577350 0.577350 0.577350
vn 0.577350 0.577350 0.577350
vn 0.577350 0.577350 0.577350
vn 0.577350 0.577350 -0.577350
vn 0.577350 0.577350 -0.577350
vn 0.577350 0.577350 -0.577350
vn 0.577350 0.577350 -0.577350
vn -0.577350 0.577350 -0.577350
vn -0.577350 0.577350 -0.577350
vn -0.577350 0.577350 -0.577350
vn -0.577350 0.577350 -0.577350
vn -0.577350 0.577350 0.577350
vn -0.577350 0.577350 0.577350
vn -0.577350 0.577350 0.577350
vn -0.577350 0.577350 0.577350
vn -0.577350 0.577350 -0.577350
vn -0.577350 0.577350 -0.577350
vn -0.577350 0.577350 -0.577350
vn -0.577350 0.577350 -0.577350
vn -0.577350 0.577350 0.577350
vn -0.577350 0.577350 0.577350
vn -0.577350 0.577350 0.577350
vn -0.577350 0.577350 0.577350
vn 0.577350 0.577350 0.577350
vn 0.577350 0.577350 0.577350
vn 0.577350 0.577350 0.577350
vn 0.577350 0.577350 0.577350
vn 0.577350 0.577350 -0.577350
vn 0.577350 0.577350 -0.577350
vn 0.577350 0.577350 -0.577350
vn 0.577350 0.577350 -0.577350
vn -0.577350 -0.577350 -0.577350
vn -0.577350 -0.577350 -0.577350
vn -0.577350 -0.577350 -0.577350
vn -0.577350 -0.577350 -0.577350
vn -0.577350 -0.577350 0.577350
vn -0.577350 -0.577350 0.577350
vn -0.577350 -0.577350 0.577350
vn -0.577350 -0.577350 0.577350
vn 0.577350 -0.577350 0.577350
vn 0.577350 -0.577350 0.577350
vn 0.577350 -0.577350 0.577350
vn 0.577350 -0.577350 0.577350
vn 0.577350 -0.577350 -0.577350
vn 0.577350 -0.577350 -0.577350
vn 0.577350 -0.577350 -0.577350
vn 0.577350 -0.577350 -0.577350
vn 0.577350 -0.577350 0.577350
vn 0.577350 -0.577350 0.577350
vn 0.577350 -0.577350 0.577350
vn 0.577350 -0.577350 0.577350
vn 0.577350 -0.577350 -0.577350
vn 0.577350 -0.577350 -0.577350
vn 0.577350 -0.577350 -0.577350
vn 0.577350 -0.577350 -0.577350
vn -0.577350 -0.577350 -0.577350
vn -0.577350 -0.577350 -0.577350
vn -0.577350 -0.577350 -0.577350
vn -0.577350 -0.577350 -0.577350
vn -0.577350 -0.577350 0.577350
vn -0.577350 -0.577350 0.577350
vn -0.577350 -0.577350 0.577350
vn -0.577350 -0.577350 0.577350
s 1
g pTorus1
usemtl initialShadingGroup
f 5/6/1 6/7/2 1/1/3
f 2/2/4 1/1/3 6/7/2
s 2
f 6/7/5 7/8/6 2/2/7
f 3/3/8 2/2/7 7/8/6
s 3
f 7/8/9 8/9/10 3/3/11
f 4/4/12 3/3/11 8/9/10
s 4
f 8/9/13 5/10/14 4/4/15
f 1/5/16 4/4/15 5/10/14
s 5
f 9/11/17 10/12/18 5/6/19
f 6/7/20 5/6/19 10/12/18
s 6
f 10/12/21 11/13/22 6/7/23
f 7/8/24 6/7/23 11/13/22
s 7
f 11/13/25 12/14/26 7/8/27
f 8/9/28 7/8/27 12/14/26
s 8
f 12/14/29 9/15/30 8/9/31
f 5/10/32 8/9/31 9/15/30
s 9
f 10/12/33 9/11/34 14/17/35
f 9/11/34 13/16/36 14/17/35
s 10
f 11/13/37 10/12/38 15/18/39
f 10/12/38 14/17/40 15/18/39
s 11
f 12/14/41 11/13/42 16/19/43
f 11/13/42 15/18/44 16/19/43
s 12
f 9/15/45 12/14/46 13/20/47
f 12/14/46 16/19/48 13/20/47
s 13
f 14/17/49 13/16/50 2/22/51
f 13/16/50 1/21/52 2/22/51
s 14
f 15/18/53 14/17/54 3/23/55
f 14/17/54 2/22/56 3/23/55
s 15
f 16/19/57 15/18/58 4/24/59
f 15/18/58 3/23/60 4/24/59
s 16
f 13/20/61 16/19/62 1/25/63
f 16/19/62 4/24/64 1/25/63
g default
v 0.000000 0.000000 -0.500000
v -0.500000 0.000000 -0.000000
v -0.000000 0.000000 0.500000
v 0.500000 0.000000 0.000000
v 0.000000 0.500000 -1.000000
v -1.000000 0.500000 -0.000000
v -0.000000 0.500000 1.000000
v 1.000000 0.500000 0.000000
v 0.000000 -0.000000 -1.500000
v -1.500000 -0.000000 -0.000000
v -0.000000 -0.000000 1.500000
v 1.500000 -0.000000 0.000000
v 0.000000 -0.500000 -1.000000
v -1.000000 -0.500000 -0.000000
v -0.000000 -0.500000 1.000000
v 1.000000 -0.500000 0.000000
vt 0.000000 1.000000
vt 0.250000 1.000000
vt 0.500000 1.000000
vt 0.750000 1.000000
vt 1.000000 1.000000
vt 0.000000 0.750000
vt 0.250000 0.750000
vt 0.500000 0.750000
vt 0.750000 0.750000
vt 1.000000 0.750000
vt 0.000000 0.500000
vt 0.250000 0.500000
vt 0.500000 0.500000
vt 0.750000 0.500000
vt 1.000000 0.500000
vt 0.000000 0.250000
vt 0.250000 0.250000
vt 0.500000 0.250000
vt 0.750000 0.250000
vt 1.000000 0.250000
vt 0.000000 0.000000
vt 0.250000 0.000000
vt 0.500000 0.000000
vt 0.750000 0.000000
vt 1.000000 0.000000
vn 0.577350 0.577350 0.577350
vn 0.577350 0.577350 0.577350
vn 0.577350 0.577350 0.577350
vn 0.577350 0.577350 0.577350
vn 0.577350 0.577350 -0.577350
vn 0.577350 0.577350 -0.577350
vn 0.577350 0.577350 -0.577350
vn 0.577350 0.577350 -0.577350
vn -0.577350 0.577350 -0.577350
vn -0.577350 0.577350 -0.577350
vn -0.577350 0.577350 -0.577350
vn -0.577350 0.577350 -0.577350
vn -0.577350 0.577350 0.577350
vn -0.577350 0.577350 0.577350
vn -0.577350 0.577350 0.577350
vn -0.577350 0.577350 0.577350
vn -0.577350 0.577350 -0.577350
vn -0.577350 0.577350 -0.577350
vn -0.577350 0.577350 -0.577350
vn -0.577350 0.577350 -0.577350
vn -0.577350 0.577350 0.577350
vn -0.577350 0.577350 0.577350
vn -0.577350 0.577350 0.577350
vn -0.577350 0.577350 0.577350
vn 0.577350 0.577350 0.577350
vn 0.577350 0.577350 0.577350
vn 0.577350 0.577350 0.577350
vn 0.577350 0.577350 0.577350
vn 0.577350 0.577350 -0.577350
vn 0.577350 0.577350 -0.577350
vn 0.577350 0.577350 -0.577350
vn 0.577350 0.577350 -0.577350
vn -0.577350 -0.577350 -0.577350
vn -0.577350 -0.577350 -0.577350
vn -0.577350 -0.577350 -0.577350
vn -0.577350 -0.577350 -0.577350
vn -0.577350 -0.577350 0.577350
vn -0.577350 -0.577350 0.577350
vn -0.577350 -0.577350 0.577350
vn -0.577350 -0.577350 0.577350
vn 0.577350 -0.577350 0.577350
vn 0.577350 -0.577350 0.577350
vn 0.577350 -0.577350 0.577350
vn 0.577350 -0.577350 0.577350
vn 0.577350 -0.577350 -0.577350
vn 0.577350 -0.577350 -0.577350
vn 0.577350 -0.577350 -0.577350
vn 0.577350 -0.577350 -0.577350
vn 0.577350 -0.577350 0.577350
vn 0.577350 -0.577350 0.577350
vn 0.577350 -0.577350 0.577350
vn 0.577350 -0.577350 0.577350
vn 0.577350 -0.577350 -0.577350
vn 0.577350 -0.577350 -0.577350
vn 0.577350 -0.577350 -0.577350
vn 0.577350 -0.577350 -0.577350
vn -0.577350 -0.577350 -0.577350
vn -0.577350 -0.577350 -0.577350
vn -0.577350 -0.577350 -0.577350
vn -0.577350 -0.577350 -0.577350
vn -0.577350 -0.577350 0.577350
vn -0.577350 -0.577350 0.577350
vn -0.577350 -0.577350 0.577350
vn -0.577350 -0.577350 0.577350
s 1
g pTorus1
f 21/31/65 22/32/66 17/26/67
f 18/27/68 17/26/67 22/32/66
s 2
f 22/32/69 23/33/70 18/27/71
f 19/28/72 18/27/71 23/33/70
s 3
f 23/33/73 24/34/74 19/28/75
f 20/29/76 19/28/75 24/34/74
s 4
f 24/34/77 21/35/78 20/29/79
f 17/30/80 20/29/79 21/35/78
s 5
f 25/36/81 26/37/82 21/31/83
f 22/32/84 21/31/83 26/37/82
s 6
f 26/37/85 27/38/86 22/32/87
f 23/33/88 22/32/87 27/38/86
s 7
f 27/38/89 28/39/90 23/33/91
f 24/34/92 23/33/91 28/39/90
s 8
f 28/39/93 25/40/94 24/34/95
f 21/35/96 24/34/95 25/40/94
s 9
f 26/37/97 25/36/98 30/42/99
f 25/36/98 29/41/100 30/42/99
s 10
f 27/38/101 26/37/102 31/43/103
f 26/37/102 30/42/104 31/43/103
s 11
f 28/39/105 27/38/106 32/44/107
f 27/38/106 31/43/108 32/44/107
s 12
f 25/40/109 28/39/110 29/45/111
f 28/39/110 32/44/112 29/45/111
s 13
f 30/42/113 29/41/114 18/47/115
f 29/41/114 17/46/116 18/47/115
s 14
f 31/43/117 30/42/118 19/48/119
f 30/42/118 18/47/120 19/48/119
s 15
f 32/44/121 31/43/122 20/49/123
f 31/43/122 19/48/124 20/49/123
s 16
f 29/45/125 32/44/126 17/50/127
f 32/44/126 20/49/128 17/50/127
